<svg version="1.2" xmlns="http://www.w3.org/2000/svg" viewBox="0 0 1080 1080" width="1080" height="1080">
	<title>Isologo Boutique Automoviles</title>
	<style>
		.s0 { fill: #000000 } 
		.s1 { fill: #000000;stroke: #ffffff;stroke-miterlimit:100;stroke-width: 6 } 
		.s2 { fill: #ffffff } 
	</style>
	<path id="Forma 1 copy" class="s0" d="m540.5 1051c-286.2 0-517.5-228.4-517.5-511 0-282.6 231.3-511 517.5-511 286.2 0 517.5 228.4 517.5 511 0 282.6-231.3 511-517.5 511z"/>
	<path id="Forma 1" class="s1" d="m540 1002c-255.5 0-462-206.5-462-462 0-255.5 206.5-462 462-462 255.5 0 462 206.5 462 462 0 255.5-206.5 462-462 462z"/>
	<path id="BOUTIQUE A U T O M Ó V I L E S" class="s2" aria-label="BOUTIQUE
A U T O M Ó V I L E S"  d="m148.6 545h55.4c23.9 0 38.6-13 38.6-31.3 0-9-5.2-17-13.7-19.2l0.1-0.6c8.3-3.4 16.2-13.5 16.2-24.8 0-14.8-11.5-24.2-31.9-24.2h-49.5zm44.8-60.6l2.1-14.5h6.2c5.7 0 6.8 2.7 6.8 5.5 0 4.2-2.8 9-8.4 9zm-5.3 35l2.1-14.4h10.6c4.4 0 6.7 2.1 6.7 5.8 0 5.3-2.8 8.6-8.5 8.6zm-43.3 25.6h55.4c23.8 0 38.6-13 38.6-31.3 0-9-5.2-17-13.8-19.2l0.2-0.6c8.3-3.4 16.1-13.5 16.1-24.8 0-14.8-11.4-24.2-31.8-24.2h-49.5zm44.7-60.6l2.2-14.5h6.1c5.7 0 6.9 2.7 6.9 5.5 0 4.2-2.9 9-8.4 9zm-5.3 35l2.1-14.4h10.6c4.4 0 6.7 2.1 6.7 5.8 0 5.3-2.8 8.6-8.6 8.6zm116.6 28.5c36.2 0 62.7-25.2 62.7-61 0-27-17.6-44.9-46.7-44.9-36.3 0-62.4 25.2-62.4 61 0 27 17.4 44.9 46.4 44.9zm4.6-30.6c-9.1 0-14.7-7.2-14.7-18.2 0-15.4 9.3-26.5 21.6-26.5 9.3 0 14.8 7.2 14.8 18.2 0 15.4-9.3 26.5-21.7 26.5zm-8.3 30.6c36.1 0 62.6-25.2 62.6-61 0-27-17.6-44.9-46.6-44.9-36.3 0-62.5 25.2-62.5 61 0 27 17.4 44.9 46.5 44.9zm4.5-30.6c-9.1 0-14.7-7.2-14.7-18.2 0-15.4 9.3-26.5 21.6-26.5 9.3 0 14.9 7.2 14.9 18.2 0 15.4-9.3 26.5-21.8 26.5zm113.6 30.6c30.6 0 51.4-18.3 56.1-49.2l8.1-53.8h-35.7l-8.3 55.2c-1.6 9.9-7.6 16.4-15.5 16.4-7.8 0-12.3-6.5-10.7-16.4l8.3-55.2h-35.4l-8.2 53.8c-4.7 30.9 10.7 49.2 41.3 49.2zm-3.7 0c30.6 0 51.3-18.3 56-49.2l8.2-53.8h-35.8l-8.3 55.2c-1.6 9.9-7.6 16.4-15.4 16.4-7.9 0-12.3-6.5-10.7-16.4l8.2-55.2h-35.4l-8.2 53.8c-4.7 30.9 10.8 49.2 41.4 49.2zm165.2-103h-87l-4.3 28.6h25.8l-10.9 71.5h35.6l10.9-71.5h25.6zm-3.8 0h-86.9l-4.3 28.6h25.7l-10.8 71.5h35.6l10.8-71.5h25.6zm0.4 100.1h35.6l15.1-100.1h-35.6zm-3.7 0h35.6l15.1-100.1h-35.6zm168.5-58.1c0-27-17.6-44.9-46.6-44.9-36.3 0-62.5 25.2-62.5 61 0 26 16.3 43.6 43.5 44.9l26 28.1 26.7-20-15.4-17.1c17.4-10.3 28.3-28.9 28.3-52zm-51.2-14.3c9.3 0 14.9 7.2 14.9 18.2 0 15.4-9.3 26.5-21.7 26.5-9.2 0-14.8-7.2-14.8-18.2 0-15.4 9.3-26.5 21.6-26.5zm47.4 14.3c0-27-17.5-44.9-46.6-44.9-36.3 0-62.5 25.2-62.5 61 0 26 16.3 43.6 43.5 44.9l26 28.1 26.8-20-15.5-17.1c17.5-10.3 28.3-28.9 28.3-52zm-51.1-14.3c9.2 0 14.8 7.2 14.8 18.2 0 15.4-9.3 26.5-21.7 26.5-9.2 0-14.7-7.2-14.7-18.2 0-15.4 9.3-26.5 21.6-26.5zm106.7 75.3c30.6 0 51.3-18.3 56-49.2l8.2-53.8h-35.8l-8.3 55.2c-1.5 9.9-7.5 16.4-15.4 16.4-7.9 0-12.3-6.5-10.7-16.4l8.3-55.2h-35.5l-8.1 53.8c-4.8 30.9 10.7 49.2 41.3 49.2zm-3.8 0c30.6 0 51.3-18.3 56.1-49.2l8.1-53.8h-35.7l-8.3 55.2c-1.6 9.9-7.6 16.4-15.5 16.4-7.8 0-12.3-6.5-10.7-16.4l8.3-55.2h-35.5l-8.1 53.8c-4.7 30.9 10.7 49.2 41.3 49.2zm154.2-75.8l4.2-27.2h-76.5l-15.2 100.1h76.5l4.2-27.2h-40.9l1.4-9.7h32.2l4-26.4h-32.2l1.4-9.6zm-3.8 0l4.2-27.2h-76.5l-15.2 100.1h76.5l4.2-27.2h-40.9l1.4-9.7h32.2l4-26.4h-32.2l1.5-9.6zm-807.3 172.9h10.5l7.3-12.5h26.1l3.5 12.5h10.4l-16.1-53.9h-9.2zm22.8-21l12.6-21.7h0.2l6 21.7zm86 22.2c14.7 0 26-9.8 28.2-24.5l4.6-30.6h-9.7l-4.7 30.6c-1.4 9.5-8.3 15.8-17.1 15.8-8.9 0-13.9-6.3-12.4-15.8l4.6-30.6h-9.8l-4.6 30.6c-2.2 14.7 6.2 24.5 20.9 24.5zm108.5-55.1h-48.3l-1.3 8.5h19.2l-6.8 45.4h9.7l6.9-45.4h19.3zm47.2 55c18.7 0 33.6-13.6 33.6-31.9 0-14.2-9.9-24.1-25.1-24.1-18.7 0-33.6 13.6-33.6 31.9 0 14.2 9.9 24.1 25.1 24.1zm1.3-8.6c-10 0-16.4-6.8-16.4-16.6 0-12.7 9.9-22.2 22.3-22.2 10 0 16.3 6.8 16.3 16.5 0 12.8-9.8 22.3-22.2 22.3zm53.6 7.5h10.3l16.8-39.4h0.3l7.5 39.4h9.6l19.4-39.4h0.3l5 39.4h10.3l-6.5-53.9h-11.2l-19.8 39.9h-0.3l-7.6-39.9h-11.3zm131.4-50.9q-8.3 0-13.2 6.1-4.8 6.2-4.8 16.8 0 10.6 4.8 16.8 4.9 6.2 13.2 6.2 8.3 0 13.1-6.2 4.8-6.2 4.8-16.8 0-10.6-4.8-16.8-4.8-6.1-13.1-6.1zm0-6.2q11.8 0 18.9 7.9 7 7.9 7 21.2 0 13.3-7 21.2-7.1 7.9-18.9 7.9-11.9 0-19-7.9-7-7.9-7-21.2 0-13.3 7-21.2 7.1-7.9 19-7.9zm-5.3-4.3l7.3-10h7l-8.6 10zm82.4 61.4h9l33.3-53.9h-10.7l-25 41.5h-0.3l-12.6-41.5h-10.8zm61.5 0h9.7l8.2-53.9h-9.8zm52.4-8.3l6.9-45.6h-9.8l-8.1 53.9h38.9l1.3-8.3zm102.8-37l1.3-8.6h-40.3l-8.2 53.9h40.3l1.3-8.5h-30.5l2.1-13.8h27.3l1.3-8.5h-27.3l2.2-14.5zm44.6 46.4c13.8 0 23.8-7.4 23.8-18.4 0-18.4-29.8-9.2-29.8-21.2 0-5.1 5.1-8.6 12.3-8.6 7.4 0 10.7 3.9 10.8 8.7h9.8c0.5-9.9-7.3-16.6-20.2-16.6-13.5 0-23.1 7.4-23.1 18.5 0 19.3 29.9 9.8 29.9 21.5 0 4.8-4.8 8-11.8 8-9.3 0-13.5-4.7-13.5-10h-9.7c-0.6 11 7.4 18.1 21.5 18.1z"/>
</svg>