<svg version="1.2" xmlns="http://www.w3.org/2000/svg" viewBox="0 0 1640 450" width="1640" height="450">
	<title>Logotipo Boutique Automoviles</title>
	<style>
		.s0 { fill: #ffffff } 
	</style>
	<path id="BOUTIQUE A U T O M Ó V I L E S" class="s0" aria-label="BOUTIQUE
A U T O M Ó V I L E S"  d="m92.7 226h103.5c44.7 0 72.2-24.3 72.2-58.6 0-16.8-9.6-31.8-25.6-35.8l0.2-1.1c15.5-6.4 30.3-25.4 30.3-46.5 0-27.6-21.4-45.2-59.7-45.2h-92.5zm83.7-113.4l4-27h11.5c10.7 0 12.8 5.1 12.8 10.1 0 8.1-5.3 16.9-15.7 16.9zm-9.9 65.5l4-27h19.8c8.3 0 12.5 4 12.5 11 0 9.9-5.3 16-16 16zm-80.9 47.9h103.5c44.7 0 72.2-24.3 72.2-58.6 0-16.8-9.6-31.8-25.6-35.8l0.2-1.1c15.5-6.4 30.2-25.4 30.2-46.5 0-27.6-21.3-45.2-59.6-45.2h-92.5zm83.7-113.4l4-27h11.5c10.7 0 12.8 5 12.8 10.1 0 8.1-5.3 16.9-15.7 16.9zm-9.9 65.5l4-27h19.8c8.3 0 12.5 4 12.5 11 0 9.9-5.3 16-16 16zm218 53.2c67.7 0 117.2-47 117.2-113.9 0-50.6-32.9-84-87.2-84-67.9 0-116.9 47.1-116.9 113.9 0 50.6 32.7 84 86.9 84zm8.6-57.2c-17.1 0-27.5-13.4-27.5-34 0-28.9 17.3-49.5 40.3-49.5 17.4 0 27.9 13.4 27.9 34 0 28.9-17.4 49.5-40.7 49.5zm-15.6 57.2c67.7 0 117.1-47 117.1-113.9 0-50.6-32.9-84-87.1-84-68 0-116.9 47.1-116.9 113.9 0 50.6 32.6 84 86.9 84zm8.6-57.2c-17.2 0-27.6-13.4-27.6-34 0-28.9 17.4-49.5 40.4-49.5 17.4 0 27.8 13.4 27.8 34 0 28.9-17.4 49.5-40.6 49.5zm212.4 57.2c57.2 0 96-34.2 104.8-92l15.3-100.5h-66.9l-15.5 103.2c-2.9 18.5-14.2 30.8-28.9 30.8-14.7 0-23-12.3-20-30.8l15.5-103.2h-66.3l-15.3 100.5c-8.8 57.8 20.1 92 77.3 92zm-7 0c57.2 0 96-34.2 104.8-92l15.2-100.5h-66.8l-15.5 103.2c-3 18.5-14.2 30.8-28.9 30.8-14.7 0-23-12.3-20.1-30.8l15.5-103.2h-66.3l-15.2 100.5c-8.9 57.8 20 92 77.3 92zm309-192.5h-162.7l-8 53.5h48.2l-20.4 133.7h66.6l20.4-133.7h47.8zm-7 0h-162.6l-8.1 53.4h48.2l-20.3 133.8h66.6l20.3-133.8h47.9zm0.6 187.3h66.6l28.3-187.3h-66.6zm-7 0h66.6l28.3-187.2h-66.6zm315.2-108.6c0-50.5-32.9-83.9-87.2-83.9-67.9 0-116.9 47-116.9 113.9 0 48.7 30.5 81.6 81.3 84l48.7 52.7 50-37.5-28.9-32.1c32.7-19.2 53-54 53-97.1zm-95.8-26.7c17.4 0 27.9 13.4 27.9 34 0 28.9-17.4 49.4-40.7 49.4-17.1 0-27.5-13.3-27.5-33.9 0-28.9 17.3-49.5 40.3-49.5zm88.7 26.7c0-50.5-32.9-83.9-87.2-83.9-67.9 0-116.8 47-116.8 113.9 0 48.7 30.5 81.6 81.3 84l48.6 52.7 50.1-37.5-28.9-32.1c32.6-19.2 52.9-54 52.9-97.1zm-95.7-26.7c17.4 0 27.8 13.4 27.8 34 0 28.9-17.4 49.4-40.7 49.4-17.1 0-27.5-13.3-27.5-33.9 0-28.9 17.4-49.5 40.4-49.5zm199.6 140.7c57.2 0 96-34.3 104.8-92l15.3-100.6h-66.9l-15.5 103.3c-2.9 18.4-14.2 30.7-28.9 30.7-14.7 0-23-12.3-20-30.7l15.5-103.3h-66.4l-15.2 100.6c-8.8 57.7 20.1 92 77.3 92zm-7.1 0c57.3 0 96.1-34.3 104.9-92l15.2-100.6h-66.8l-15.5 103.3c-3 18.4-14.2 30.7-28.9 30.7-14.7 0-23-12.3-20.1-30.7l15.5-103.3h-66.3l-15.2 100.6c-8.9 57.7 20 92 77.2 92zm288.4-141.8l7.8-50.8h-143.1l-28.3 187.2h143.1l7.7-50.8h-76.5l2.7-18.2h60.2l7.5-49.4h-60.2l2.7-18zm-7.1 0l7.8-50.8h-143.1l-28.4 187.2h143.1l7.8-50.8h-76.5l2.7-18.2h60.1l7.5-49.4h-60.2l2.7-18zm-1509.8 323.4h19.7l13.7-23.3h48.8l6.5 23.3h19.5l-30.1-100.8h-17.2zm42.7-39.3l23.4-40.5h0.5l11.1 40.5zm160.8 41.5c27.5 0 48.7-18.3 52.9-45.7l8.6-57.3h-18.3l-8.6 57.3c-2.8 17.7-15.6 29.6-32.1 29.6-16.6 0-26-11.9-23.2-29.6l8.6-57.3h-18.3l-8.6 57.3c-4.2 27.4 11.5 45.7 39 45.7zm203.1-103h-90.5l-2.4 16h36l-12.8 84.8h18.3l12.8-84.8h36.1zm88.3 102.8c35 0 62.8-25.5 62.8-59.7 0-26.5-18.5-45.1-47-45.1-35 0-62.8 25.5-62.8 59.8 0 26.4 18.5 45 47 45zm2.4-16.1c-18.7 0-30.6-12.7-30.6-31 0-23.9 18.4-41.6 41.6-41.6 18.7 0 30.5 12.7 30.5 31 0 23.9-18.3 41.6-41.5 41.6zm100.3 14.1h19.3l31.2-73.7h0.6l14.1 73.7h18l36.2-73.7h0.5l9.4 73.7h19.3l-12.1-100.8h-21l-37 74.5h-0.6l-14.3-74.5h-21zm245.7-95.3q-15.5 0-24.6 11.5-9.1 11.5-9.1 31.4 0 19.8 9.1 31.4 9.1 11.5 24.6 11.5 15.5 0 24.5-11.5 9-11.6 9-31.4 0-19.9-9-31.4-9-11.5-24.5-11.5zm0-11.6q22.1 0 35.3 14.9 13.2 14.7 13.2 39.6 0 24.8-13.2 39.7-13.2 14.7-35.3 14.7-22.2 0-35.5-14.7-13.2-14.8-13.2-39.7 0-24.9 13.2-39.6 13.3-14.9 35.5-14.9zm-9.9-8.1l13.8-18.5h13l-16.1 18.5zm154.1 115h16.9l62.2-100.8h-20.1l-46.8 77.5h-0.5l-23.5-77.5h-20.2zm115 0h18.2l15.3-100.8h-18.3zm97.9-15.6l13-85.2h-18.3l-15.2 100.8h72.8l2.3-15.6zm192.3-69.2l2.4-16h-75.3l-15.3 100.8h75.4l2.4-16h-57l3.9-25.8h50.9l2.5-16h-51l4.1-27zm83.3 86.8c26 0 44.5-13.8 44.5-34.4 0-34.4-55.6-17.3-55.6-39.6 0-9.7 9.5-16.1 22.9-16.1 14 0 20.1 7.2 20.3 16.2h18.3c1-18.5-13.6-31.1-37.8-31.1-25.2 0-43.2 13.8-43.2 34.7 0 36 56 18.3 56 40.1 0 9-9.1 14.9-22.2 14.9-17.3 0-25.2-8.6-25.2-18.7h-18.1c-1.2 20.8 13.8 34 40.1 34z"/>
</svg>